Coordinates
nRows=105
nColumns=2
inDegrees=yes
endheader
time	ankle_angle_r	
2.93448	  9.246826	
3.00605	  9.212002	
3.07762	  9.235426	
3.14919	  9.262085	
3.22077	  9.329829	
3.29234	  9.175014	
3.36391	  9.201050	
3.43548	  9.231567	
3.50706	  9.226522	
3.57863	  9.313176	
3.6502	  9.231567	
3.72177	  9.227770	
3.79335	  9.273963	
3.86492	  9.167567	
3.93649	  9.277344	
4.00806	  9.203183	
4.07964	  9.233284	
4.15121	  9.284323	
4.22278	  9.170532	
4.29435	  9.254690	
4.36593	  9.193447	
4.4375	  9.262085	
4.50907	  9.178552	
4.58065	  9.270312	
4.65222	  9.270520	
4.72379	  9.255469	
4.79536	  9.259642	
4.86694	  9.283544	
4.93851	  9.310577	
5.01008	  9.292603	
5.08165	  9.294070	
5.15323	  9.403937	
5.2248	  9.348478	
5.29637	  9.338379	
5.36794	  9.323120	
5.43952	  9.390343	
5.51109	  9.390759	
5.58266	  9.338379	
5.65423	  9.330943	
5.72581	  9.361045	
5.79738	  9.384155	
5.86895	  9.319833	
5.94052	  9.268244	
6.0121	  9.307861	
6.08367	  9.249490	
6.15524	  9.244370	
6.22681	  9.229321	
6.29839	  9.364819	
6.36996	  9.307861	
6.44153	  9.260462	
6.5131	  9.324535	
6.58468	  9.231567	
6.65625	  9.262085	
6.72782	  9.233150	
6.7994	  9.279675	
6.87097	  9.277344	
6.94254	  9.307861	
7.01411	  9.216268	
7.08569	  9.277095	
7.15726	  9.323120	
7.22883	  9.340374	
7.3004	  9.262085	
7.37198	  9.324202	
7.44355	  9.325699	
7.51512	  9.355135	
7.58669	  9.309566	
7.65827	  9.323120	
7.72984	  9.371017	
7.80141	  9.294931	
7.87298	  9.368896	
7.94456	  9.325866	
8.01613	  9.323120	
8.0877	  9.298925	
8.15927	  9.216309	
8.23085	  9.285448	
8.30242	  9.223996	
8.37399	  9.330392	
8.44556	  9.242624	
8.51714	  9.238008	
8.58871	  9.323120	
8.66028	  9.277344	
8.73185	  9.323120	
8.80343	  9.317879	
8.875	  9.399414	
8.94657	  9.344036	
9.01815	  9.338379	
9.08972	  9.356750	
9.16129	  9.368896	
9.23286	  9.381876	
9.30444	  9.309725	
9.37601	  9.309309	
9.44758	  9.368896	
9.51915	  9.308476	
9.59073	  9.239098	
9.6623	  9.269823	
9.73387	  9.368896	
9.80544	  9.263134	
9.87702	  9.201050	
9.94859	  9.303054	
10.0202	  9.270863	
10.0917	  9.246826	
10.1633	  9.185791	
10.2349	  9.185791	
10.3065	  9.225919	
10.378	  9.175973	
